<svg width="34" height="32" viewBox="0 0 34 32" fill="none" xmlns="http://www.w3.org/2000/svg">
<path fill-rule="evenodd" clip-rule="evenodd" d="M27.588 0.268555C26.9703 0.268555 26.4697 0.772037 26.4697 1.39314V5.50112C20.7123 -0.104132 11.5265 0.0454439 5.95251 5.83506C3.32564 8.56359 1.86019 12.2146 1.86746 16.0124C1.86746 16.6335 2.36813 17.1369 2.98576 17.1369C3.6034 17.1369 4.104 16.6335 4.104 16.0124C4.10538 9.18053 9.61382 3.64329 16.4076 3.64467C19.8579 3.64533 23.1493 5.10319 25.4789 7.66251L20.525 9.32345C19.9382 9.51975 19.6208 10.1571 19.816 10.7471C20.0112 11.3371 20.645 11.6564 21.2317 11.4601L27.9414 9.21098C28.3994 9.05758 28.7078 8.62585 28.7063 8.14043V1.39307C28.7063 0.772037 28.2056 0.268555 27.588 0.268555Z" fill="#4F978D"/>
<path fill-rule="evenodd" clip-rule="evenodd" d="M29.8249 14.8878C29.2073 14.8878 28.7066 15.3913 28.7066 16.0124C28.7052 22.8442 23.1968 28.3815 16.403 28.3801C12.9527 28.3794 9.66132 26.9216 7.33166 24.3623L12.2856 22.7013C12.8723 22.505 13.1898 21.8676 12.9946 21.2776C12.7994 20.6876 12.1656 20.3684 11.5789 20.5647L4.86919 22.8138C4.41117 22.9672 4.10275 23.3989 4.10425 23.8843V30.6317C4.10425 31.2528 4.60493 31.7563 5.22256 31.7563C5.84019 31.7563 6.34087 31.2528 6.34087 30.6317V26.5236C12.0982 32.1289 21.2841 31.9794 26.858 26.1897C29.4849 23.4612 30.9503 19.8102 30.9431 16.0124C30.9432 15.3913 30.4425 14.8878 29.8249 14.8878Z" fill="#4F978D"/>
</svg>
